<?xml version="1.0" standalone="no"?>
<!DOCTYPE svg PUBLIC "-//W3C//DTD SVG 20010904//EN"
 "http://www.w3.org/TR/2001/REC-SVG-20010904/DTD/svg10.dtd">
<svg version="1.0" xmlns="http://www.w3.org/2000/svg"
 width="400.000000pt" height="400.000000pt" viewBox="0 0 400.000000 400.000000"
 preserveAspectRatio="xMidYMid meet">
<metadata>
Created by potrace 1.14, written by Peter Selinger 2001-2017
</metadata>
<g transform="translate(0.000000,400.000000) scale(0.100000,-0.100000)"
fill="#000000" stroke="none">
<path d="M1830 3994 c-14 -2 -63 -9 -110 -15 -96 -13 -115 -16 -138 -23 -9 -3
-32 -8 -51 -11 -77 -13 -265 -81 -386 -140 -120 -59 -203 -103 -215 -115 -3
-3 -34 -25 -70 -49 -463 -314 -776 -836 -847 -1411 -4 -36 -7 -150 -7 -255 1
-174 7 -231 39 -400 19 -99 104 -357 126 -379 5 -6 9 -15 9 -21 0 -7 23 -54
51 -106 29 -52 57 -103 63 -114 6 -11 22 -36 35 -55 220 -316 456 -525 775
-686 212 -107 420 -170 671 -201 94 -12 422 -8 505 6 41 7 88 15 104 17 16 3
32 6 35 8 3 2 24 7 46 10 70 11 277 85 390 140 417 200 731 510 940 927 66
131 140 343 159 454 3 17 10 53 15 82 32 165 35 482 8 650 -108 651 -507 1196
-1087 1481 -224 111 -337 145 -640 197 -39 7 -381 14 -420 9z m50 -1058 c96
-3 184 -8 195 -10 11 -2 52 -7 90 -10 437 -43 901 -183 1195 -361 111 -67 137
-185 63 -284 -62 -81 -157 -88 -286 -18 -157 85 -369 167 -526 204 -36 8 -75
17 -86 20 -36 9 -206 42 -243 48 -234 33 -332 40 -582 39 -250 0 -429 -15
-605 -49 -86 -17 -166 -36 -210 -49 -27 -9 -61 -16 -75 -16 -106 0 -190 84
-190 190 0 59 43 135 91 161 21 11 219 64 279 75 25 4 47 8 50 9 3 0 27 4 53
9 27 4 59 9 70 12 12 2 56 7 97 10 41 3 78 8 81 10 4 2 80 6 170 10 90 4 166
8 167 10 2 1 9 1 15 -1 7 -2 91 -6 187 -9z m-25 -691 c127 -6 190 -12 260 -25
28 -5 68 -12 89 -15 21 -3 48 -7 60 -10 279 -61 446 -117 661 -221 206 -100
249 -136 258 -214 8 -70 -28 -129 -96 -160 -55 -25 -92 -16 -204 46 -203 112
-422 188 -713 249 -8 1 -40 6 -70 10 -30 4 -64 9 -75 11 -143 29 -613 25 -780
-7 -27 -5 -63 -12 -80 -15 -31 -5 -49 -10 -175 -42 -80 -21 -106 -20 -157 5
-97 46 -103 204 -10 262 42 26 229 74 372 96 61 9 121 18 135 21 14 2 84 7
155 10 72 4 131 7 132 8 3 2 74 0 238 -9z m-35 -649 c338 -13 647 -93 930
-239 118 -61 159 -91 175 -130 23 -54 1 -119 -50 -153 -42 -27 -97 -20 -172
24 -212 123 -446 199 -728 237 -111 15 -441 17 -550 4 -38 -4 -90 -11 -115
-13 -51 -6 -229 -39 -304 -56 -83 -18 -149 19 -166 93 -9 43 15 105 52 129 52
34 406 91 648 104 58 4 107 8 108 9 2 2 9 2 15 0 7 -2 77 -6 157 -9z"/>
</g>
</svg>
